<?xml version="1.0" encoding="utf-8"?>
<!DOCTYPE svg PUBLIC "-//W3C//DTD SVG 1.0//EN" "http://www.w3.org/TR/2001/REC-SVG-20010904/DTD/svg10.dtd">
<svg version="1.0" xmlns="http://www.w3.org/2000/svg" width="560px" height="220px" viewBox="0 0 1998 784" preserveAspectRatio="xMidYMid meet">
 <g fill="#ffffff">
  <path d="M0 391.76 l0 -391.76 999 0 999 0 0 391.76 0 391.76 -999 0 -999 0 0 -391.76z m934.11 140.18 l0 -3.06 -86.31 0 -86.31 0 0 3.06 0 3.06 86.31 0 86.31 0 0 -3.06z m194.41 0.37 l-0.37 -2.82 -86.56 -0.37 -86.68 -0.24 0 3.06 0 3.06 87.05 0 86.92 0 -0.37 -2.69z m191.23 -0.37 l0 -3.06 -85.09 0 -85.09 0 0 3.06 0 3.06 85.09 0 85.09 0 0 -3.06z m189.76 0 l0 -3.06 -84.47 0 c-81.05 0 -84.47 0.12 -84.47 2.20 0 1.22 0.37 2.69 0.86 3.06 0.37 0.49 38.44 0.86 84.47 0.86 l83.62 0 0 -3.06z m193.19 0.37 l-0.37 -2.82 -85.94 -0.37 -86.07 -0.24 0 3.06 0 3.06 86.43 0 86.31 0 -0.37 -2.69z m191.23 -0.37 l0 -3.06 -85.09 0 -85.09 0 0 3.06 0 3.06 85.09 0 85.09 0 0 -3.06z m-1343.26 -14.45 c7.59 -8.69 13.59 -16.04 13.34 -16.41 -0.37 -0.37 -3.92 0.12 -7.84 0.98 -10.77 2.45 -40.40 2.08 -53.01 -0.61 -14.08 -2.94 -29.63 -8.94 -38.56 -14.81 -15.79 -10.41 -34.03 -32.20 -40.65 -48.60 -10.65 -26.20 -12 -66.72 -3.18 -94.64 1.71 -5.39 3.92 -11.39 4.90 -13.47 2.08 -4.16 1.96 -3.92 -6.37 6.12 -3.43 4.04 -12.24 13.71 -19.83 21.67 l-13.59 14.32 -0.86 11.39 c-2.57 35.14 11.14 73.46 36.97 103.21 19.71 22.65 50.93 39.67 82.39 44.69 5.02 0.73 10.04 1.59 11.02 1.84 0.98 0.24 6.24 0.24 11.51 0.24 l9.79 -0.24 13.96 -15.67z m25.83 11.51 c22.89 -7.71 39.91 -18.85 57.54 -37.58 l9.92 -10.65 0 -22.16 c0 -18.49 -0.24 -21.79 -1.59 -20.32 -2.45 2.69 -23.02 26.93 -27.18 31.95 -7.35 8.81 -34.40 39.91 -44.44 51.05 -11.88 12.98 -11.51 13.47 5.75 7.71z m-406.09 -101.49 l-0.37 -103.21 5.88 0.37 5.88 0.37 22.16 23.26 c12.12 12.85 35.26 37.22 51.30 54.23 l29.26 30.97 3.31 -3.43 c5.51 -5.88 75.54 -82.15 92.92 -101.37 9.06 -10.16 22.04 -24.36 28.77 -31.83 6.73 -7.47 14.32 -15.79 16.89 -18.73 l4.53 -5.14 0 -16.28 -0.12 -16.16 -10.04 10.53 c-9.92 10.41 -46.15 48.60 -102.35 107.98 l-28.77 30.36 -5.02 -0.37 c-4.90 -0.37 -6.24 -1.59 -44.07 -41.38 -21.55 -22.53 -52.03 -54.48 -67.82 -71.01 -15.79 -16.53 -29.99 -31.34 -31.59 -33.06 l-2.82 -3.06 0 145.44 0 145.44 16.28 -0.37 16.16 -0.37 -0.37 -103.21z m1113.71 49.95 c-1.59 -4.53 -2.69 -4.65 -4.53 -0.61 -1.96 4.28 -1.96 4.28 2.08 4.28 3.55 0 3.67 -0.12 2.45 -3.67z m118.02 -0.61 c-2.08 -4.28 -2.08 -4.28 -3.67 -1.59 -2.45 4.41 -1.96 5.88 2.08 5.88 l3.67 0 -2.08 -4.28z m388.95 3.67 c0 -1.22 -2.94 -6.73 -3.55 -6.73 -0.49 0 -1.47 1.71 -2.20 3.67 -1.35 3.55 -1.22 3.67 2.20 3.67 1.96 0 3.55 -0.24 3.55 -0.61z m-1165.38 -47.75 c20.57 -24.12 18.24 -19.47 18.24 -36.85 l0 -15.18 -56.19 0 c-30.97 0 -56.56 0.37 -56.81 0.98 -0.24 0.49 -0.24 7.10 0.12 14.69 l0.61 13.71 40.16 0 40.28 0 0 19.22 c0 11.14 0.49 18.73 1.10 18.12 0.61 -0.73 6.24 -7.35 12.49 -14.69z m489.46 -57.42 c2.33 -1.22 5.51 -3.67 7.10 -5.39 6 -6.49 6.86 -10.41 7.47 -33.54 0.49 -21.42 0.49 -21.79 -2.08 -21.79 -1.47 0 -2.57 0.73 -2.57 1.59 0 0.73 -0.12 11.39 -0.37 23.51 -0.37 24.61 -1.10 27.42 -8.20 32.20 -3.80 2.57 -5.39 2.82 -14.32 2.45 -9.18 -0.37 -10.28 -0.73 -13.71 -3.92 -5.39 -5.14 -6.24 -9.67 -6.24 -34.03 0 -20.93 -0.12 -21.79 -2.45 -21.79 -2.33 0 -2.45 0.86 -2.45 21.18 0 19.59 0.24 21.55 2.94 27.30 3.43 7.47 9.67 12.61 17.63 14.57 6.12 1.59 10.90 0.98 17.26 -2.33z m210.33 0.24 c3.43 -1.22 7.71 -3.43 9.43 -4.77 3.06 -2.33 3.18 -3.06 3.18 -14.08 l0 -11.51 -11.02 0 c-8.81 0 -11.02 0.37 -11.02 1.84 0 1.35 1.96 1.84 8.32 2.08 l8.20 0.37 0.37 10.04 c0.37 9.67 0.24 10.16 -2.94 12.12 -2.20 1.59 -6.49 2.33 -13.96 2.69 -15.92 0.73 -23.26 -2.45 -28.28 -12.24 -2.20 -4.28 -2.45 -6.73 -2.08 -17.51 0.37 -12 0.61 -12.85 4.16 -17.38 2.08 -2.57 5.51 -5.63 7.47 -6.86 5.75 -3.31 18.12 -4.04 26.57 -1.59 3.92 1.22 7.35 1.84 7.71 1.47 0.37 -0.24 -1.84 -1.84 -4.77 -3.43 -4.04 -2.08 -7.35 -2.69 -13.83 -2.82 -7.35 0 -9.55 0.49 -15.30 3.80 -8.20 4.65 -14.08 11.88 -16.53 20.69 -5.02 16.89 7.22 35.38 25.95 39.67 5.51 1.22 9.67 0.61 18.36 -2.57z m-558.63 -8.57 c0.37 -6.12 0.73 -16.65 0.73 -23.26 l0 -12.12 4.53 0.37 c4.41 0.37 5.14 1.10 12 11.63 4.04 6.24 7.71 11.39 8.08 11.39 0.49 0 4.28 -5.26 8.45 -11.63 l7.71 -11.63 5.26 0 5.39 0 0 23.38 c0 21.55 0.12 23.26 2.20 22.89 1.96 -0.37 2.08 -3.06 2.45 -31.95 l0.24 -31.46 -3.06 0 c-2.57 0 -4.65 2.45 -13.47 15.92 -10.28 15.79 -10.41 15.92 -14.94 15.92 -4.65 0 -4.77 -0.12 -14.81 -15.92 -8.45 -13.22 -10.77 -15.92 -13.22 -15.92 l-2.94 0 0 31.83 c0 30.12 0.12 31.83 2.33 31.83 1.96 0 2.33 -1.35 3.06 -11.26z m95.49 2.08 l3.43 -7.96 20.20 0 20.20 0 3.80 8.57 c2.08 4.77 4.41 8.57 5.26 8.57 1.10 0 -25.10 -61.34 -27.06 -63.42 -1.47 -1.47 -6.73 5.02 -9.79 11.88 -11.26 25.59 -21.42 49.71 -21.42 50.68 0 2.57 2.33 -0.98 5.39 -8.32z m90.35 -2.69 l0.37 -12 11.63 -0.24 11.63 -0.37 7.96 11.88 c4.41 6.49 8.69 12.12 9.67 12.37 0.86 0.24 -1.22 -3.43 -4.65 -8.32 -5.02 -7.22 -6.24 -9.92 -6.24 -13.96 0 -4.53 0.49 -5.26 4.65 -7.47 5.26 -2.82 10.77 -12.37 9.55 -16.89 -1.35 -5.39 -6.24 -11.26 -11.75 -13.96 -4.77 -2.45 -7.22 -2.82 -21.67 -2.82 l-16.28 0 0 31.83 c0 30.85 0.12 31.83 2.45 31.83 2.20 0 2.45 -0.98 2.69 -11.88z m84.23 -19.96 c0 -30.97 -0.12 -31.83 -2.45 -31.83 -2.33 0 -2.45 0.86 -2.45 31.83 0 30.97 0.12 31.83 2.45 31.83 2.33 0 2.45 -0.86 2.45 -31.83z m159.77 29.02 c2.69 -1.47 6.12 -4.65 7.59 -6.86 6.98 -10.28 0.73 -18.49 -18.61 -24.49 -16.41 -5.02 -17.14 -5.63 -17.14 -14.08 0 -9.55 2.69 -12.12 13.71 -12.73 5.39 -0.37 10.28 0.24 13.83 1.47 2.94 0.98 5.63 1.59 6 1.35 0.98 -0.98 -0.49 -1.84 -7.96 -4.41 -11.39 -4.04 -22.04 -0.98 -27.42 7.71 -2.94 4.77 -3.06 8.45 -0.61 13.22 2.45 4.77 8.08 7.96 19.59 11.02 14.08 3.67 15.79 5.26 16.28 14.32 0.37 6.86 0.12 7.71 -2.94 10.04 -4.65 3.67 -22.28 3.67 -29.02 0.12 -5.02 -2.69 -5.75 -2.94 -5.75 -1.47 0 0.98 8.45 5.26 13.47 6.86 5.02 1.59 14.32 0.61 18.98 -2.08z m183.64 -1.35 c0.49 -2.20 0.61 -8.69 0.37 -14.32 l-0.37 -10.16 4.90 -0.98 c6 -0.98 28.40 -1.22 32.08 -0.24 2.57 0.73 2.82 1.47 3.06 15.06 0.37 13.71 0.49 14.20 3.18 14.57 l2.69 0.37 0 -31.83 c0 -31.10 -0.12 -31.95 -2.45 -31.95 -2.20 0 -2.45 0.86 -2.45 10.90 0 6 -0.37 12.61 -0.73 14.69 l-0.86 3.80 -19.71 -0.24 -19.71 -0.37 -0.37 -14.32 c-0.24 -13.47 -0.49 -14.45 -2.69 -14.45 -2.33 0 -2.45 0.98 -2.45 31.83 0 30.73 0.12 31.83 2.45 31.83 1.71 0 2.57 -1.10 3.06 -4.16z m126.71 2.33 c0 -1.47 -3.31 -1.84 -19.83 -2.08 l-19.96 -0.37 -0.37 -12 c-0.37 -11.88 -0.37 -11.88 2.82 -13.10 1.84 -0.73 9.55 -1.22 17.26 -1.22 11.51 0 13.96 -0.37 13.96 -1.84 0 -1.47 -2.94 -1.84 -16.77 -2.08 l-16.89 -0.37 -0.37 -11.88 c-0.37 -14.20 -2.20 -13.10 22.16 -13.59 25.22 -0.37 21.42 -2.57 -5.26 -3.06 l-22.04 -0.24 0 31.83 0 31.83 22.65 0 c19.10 0 22.65 -0.24 22.65 -1.84z m37.95 -10.28 l0 -12.12 7.84 -0.86 c13.22 -1.47 14.45 -0.86 23.63 12.98 7.10 10.53 10.16 14.08 10.16 11.39 0 -0.37 -2.69 -4.65 -6.12 -9.43 -4.77 -6.73 -6.12 -9.67 -6.12 -13.34 0 -3.31 0.49 -4.65 1.84 -4.65 3.18 0 11.51 -8.57 12.73 -13.22 1.84 -6.24 -1.71 -13.71 -8.57 -18.24 -5.02 -3.31 -5.88 -3.43 -22.77 -3.80 l-17.51 -0.49 0 31.95 c0 31.10 0.12 31.95 2.45 31.95 2.33 0 2.45 -0.86 2.45 -12.12z m82.15 3.55 l3.92 -8.57 20.08 0.24 20.20 0.37 3.31 7.84 c1.84 4.41 4.04 8.20 5.02 8.45 0.98 0.37 1.35 -0.12 0.98 -1.10 -0.37 -0.98 -6.61 -15.30 -13.83 -31.95 -10.53 -24.36 -13.59 -30.36 -15.55 -30.36 -2.69 0 -3.55 1.84 -25.95 53.62 -2.33 5.51 -3.80 10.04 -3.18 10.04 0.73 0 2.94 -3.92 5.02 -8.57z m117.41 5.88 c6.37 -3.31 9.55 -7.35 10.53 -13.34 1.35 -8.08 -6.37 -13.96 -25.10 -19.22 -11.63 -3.31 -13.59 -5.14 -13.59 -12.61 0 -7.59 0.73 -9.43 5.02 -11.51 4.41 -2.33 17.14 -2.33 22.77 0 5.02 2.08 5.26 2.20 5.26 0.86 0 -1.47 -7.96 -5.02 -13.34 -5.88 -11.88 -1.84 -26.08 9.43 -24 18.98 1.47 6.86 9.30 12 23.87 15.43 11.75 2.94 14.69 5.63 14.69 14.08 0 5.02 -0.61 6.86 -3.06 9.18 -2.69 2.82 -3.92 3.06 -13.59 3.06 -8.45 0 -11.88 -0.61 -16.04 -2.57 -2.94 -1.47 -5.75 -2.33 -6.12 -1.84 -1.22 1.10 0 1.84 7.84 5.14 9.18 3.80 17.63 3.80 24.85 0.24z m49.58 -26.57 c0.49 -16.04 0.49 -30.36 0 -31.83 -0.37 -1.47 -1.84 -2.57 -3.18 -2.57 -2.20 0 -2.33 1.22 -2.33 31.83 0 30.24 0.12 31.83 2.33 31.83 2.08 0 2.33 -1.84 3.18 -29.26z m42.24 6 l0 -23.26 4.77 0 c4.53 0 4.90 0.24 12.98 12.24 l8.32 12.24 7.47 -11.39 7.47 -11.26 6 -0.37 5.88 -0.37 -0.24 15.06 c-0.61 27.06 -0.37 30.36 2.45 30.36 2.33 0 2.45 -0.86 2.45 -31.95 l0 -31.83 -3.31 0.37 c-2.82 0.24 -5.14 2.94 -13.71 16.04 -10.16 15.43 -10.28 15.55 -14.94 15.55 -4.65 0 -4.65 0 -14.32 -15.55 -7.96 -13.10 -10.16 -15.79 -12.85 -16.04 l-3.31 -0.37 0 31.83 c0 31.10 0.12 31.95 2.45 31.95 2.33 0 2.45 -0.86 2.45 -23.26z m-1371.30 -69.78 c7.96 -5.39 25.22 -13.83 30.73 -15.06 1.71 -0.37 6.61 -1.71 11.02 -2.82 10.16 -2.69 42.24 -3.06 53.26 -0.61 14.20 3.18 27.55 8.81 39.42 16.89 l11.88 7.84 9.67 -9.67 9.67 -9.67 -7.84 -6.12 c-20.69 -16.28 -49.22 -27.79 -76.76 -30.97 -21.18 -2.45 -47.99 2.94 -69.91 13.83 l-12.73 6.37 -5.02 12.24 c-2.69 6.73 -8.45 18.85 -12.73 26.93 l-7.71 14.69 9.67 -9.30 c5.26 -5.02 13.10 -11.63 17.38 -14.57z"/>
  <path d="M871.92 351.12 c0.37 -3.80 2.45 -10.53 5.02 -16.04 l4.41 -9.55 5.02 0.37 5.02 0.37 4.90 10.65 c2.94 6.73 4.77 12.61 4.77 15.67 l0 4.90 -14.81 0 -14.81 0 0.49 -6.37z"/>
  <path d="M952.72 333.98 l0.37 -15.06 16.16 0 c16.04 0 16.28 0 19.47 3.31 6.24 6.24 5.02 21.67 -1.84 25.46 -1.35 0.61 -9.67 1.22 -18.49 1.22 l-16.04 0 0.37 -14.94z"/>
  <path d="M1545.02 333.49 l0 -15.43 16.41 0.49 c15.43 0.37 16.65 0.49 19.59 3.31 2.82 2.69 3.18 3.92 3.18 11.88 0 8.32 -0.24 9.06 -3.80 12 -3.55 3.06 -4.28 3.18 -19.59 3.18 l-15.79 0 0 -15.43z"/>
  <path d="M1636.84 352.34 c0 -3.43 1.59 -9.18 4.53 -16.04 l4.53 -10.77 5.51 0.37 5.39 0.37 4.65 10.90 c2.82 6.37 4.77 12.85 4.77 15.67 l0 4.65 -14.69 0 -14.69 0 0 -5.14z"/>
 </g>
 <g fill="#081e39">
  <path d="M757.82 531.94 l0 -6.73 89.98 0 89.98 0 0 6.73 0 6.73 -89.98 0 -89.98 0 0 -6.73z"/>
  <path d="M511.74 536.84 c-0.98 -0.24 -6 -1.10 -11.02 -1.84 -31.46 -5.02 -62.68 -22.04 -82.39 -44.69 -26.93 -30.97 -40.16 -70.15 -37.10 -109.94 l0.98 -12 13.71 -14.32 c15.79 -16.65 24.49 -26.81 31.10 -36.73 6.86 -10.04 22.04 -39.18 27.79 -53.50 l5.02 -12.24 12.73 -6.37 c21.30 -10.65 49.34 -16.28 71.62 -14.45 29.26 2.45 60.60 14.32 82.03 31.22 13.34 10.53 13.47 8.57 -1.71 23.75 l-13.34 13.22 -6.73 -5.51 c-26.44 -21.55 -63.17 -30.12 -94.51 -22.16 -4.04 0.98 -8.69 2.20 -10.41 2.57 -6 1.35 -23.38 10.04 -32.32 16.28 -25.71 17.75 -42.11 43.95 -46.77 74.68 -6.98 46.28 7.47 86.31 40.52 112.63 10.77 8.45 20.45 13.34 35.01 17.63 22.77 6.61 44.07 6.73 68.19 0.61 5.51 -1.35 11.02 -2.33 12.12 -2.08 1.47 0.24 -3.31 6.49 -16.89 21.79 l-18.98 21.42 -13.34 0.12 c-7.47 0.12 -14.32 0.12 -15.30 -0.12z"/>
  <path d="M134.91 385.40 l0.37 -149.73 2.69 0 c1.96 0 8.69 6.24 23.26 21.55 11.39 11.75 43.34 45.42 71.25 74.68 27.91 29.26 51.42 53.26 52.15 53.50 1.35 0.37 12.98 -11.63 70.40 -72.60 48.36 -51.30 77.37 -81.41 78.60 -81.41 0.49 0 0.98 10.16 0.98 22.53 l0 22.53 -5.26 6.12 c-2.82 3.31 -15.30 17.14 -27.79 30.85 -12.49 13.71 -25.59 28.28 -29.26 32.32 -11.02 12.37 -87.29 95 -87.66 95 -0.24 0 -18.49 -19.10 -40.52 -42.48 -63.91 -67.46 -65.87 -69.54 -67.95 -69.91 -1.84 -0.37 -2.08 7.96 -1.84 102.84 l0.12 103.21 -19.96 0.37 -19.83 0.24 0.24 -149.61z"/>
  <path d="M608.46 436.57 l0 -22.77 -40.16 0 -40.28 0 -0.86 -17.26 c-0.37 -9.43 -0.49 -17.75 -0.12 -18.36 0.49 -0.61 24.98 -1.10 60.72 -1.10 l59.87 0 0 18.85 c0 18.85 0 18.98 -3.31 23.02 -12.24 14.57 -33.91 39.67 -34.77 39.91 -0.61 0.24 -1.10 -9.79 -1.10 -22.28z"/>
  <path d="M1094.25 381.60 c-8.08 -2.33 -14.20 -7.47 -17.63 -14.81 -2.82 -5.88 -2.94 -7.47 -2.94 -30.97 l0 -24.85 6.12 0 6.12 0 0 21.79 c0 24.24 0.86 28.89 6.12 33.91 5.14 5.02 14.69 5.75 20.81 1.59 7.22 -4.90 7.96 -7.59 8.20 -32.20 0 -12.12 0.24 -22.77 0.24 -23.51 0.12 -1.10 2.20 -1.59 6.37 -1.59 l6.24 0 -0.49 25.46 c-0.49 27.18 -1.22 30.48 -7.47 37.22 -6.98 7.59 -20.69 11.02 -31.71 7.96z"/>
  <path d="M1176.52 381.48 c-7.35 -1.59 -15.79 -5.63 -18.24 -8.57 -1.22 -1.47 -0.98 -2.45 1.22 -5.51 3.43 -4.65 4.65 -4.65 11.26 -0.49 7.35 4.65 19.59 5.51 24.49 1.59 2.69 -2.08 3.31 -3.55 3.06 -6.49 -0.49 -5.02 -4.41 -7.59 -16.28 -10.65 -12.85 -3.43 -18.12 -6.98 -20.81 -13.96 -2.45 -6.49 -1.84 -12 2.20 -18 4.04 -5.88 9.55 -8.69 18.98 -9.30 8.94 -0.73 20.81 2.57 24.98 6.73 1.96 1.96 1.84 2.33 -1.47 6.37 l-3.43 4.28 -5.39 -3.06 c-11.02 -6.24 -24.49 -3.18 -24.49 5.63 0 4.53 2.33 6 16.53 10.41 18.12 5.63 24.49 12.85 21.67 24.85 -2.94 13.22 -17.51 20.08 -34.28 16.16z"/>
  <path d="M1303.47 381.97 c-7.35 -1.84 -13.59 -5.51 -18.36 -10.90 -5.63 -6.24 -8.20 -12.24 -9.06 -21.67 -1.35 -14.81 5.39 -28.16 18 -35.26 6.24 -3.55 7.59 -3.80 18.98 -3.80 10.28 0 13.10 0.49 17.14 2.69 9.79 5.26 9.79 5.26 5.14 10.77 -4.16 4.77 -4.28 4.90 -6.73 2.69 -3.67 -3.43 -13.47 -5.88 -19.34 -5.02 -6.61 0.98 -11.51 4.04 -15.92 9.79 -2.94 3.80 -3.55 6 -3.92 13.34 -0.73 13.34 4.28 21.55 15.30 25.22 5.63 1.84 17.87 0.73 21.91 -1.96 2.69 -1.71 3.06 -2.69 2.69 -8.32 l-0.37 -6.37 -8.08 -0.37 -8.20 -0.37 -0.73 -4.28 c-0.49 -2.33 -0.49 -4.77 -0.12 -5.39 0.49 -0.73 7.10 -1.22 15.43 -1.22 l14.57 0 0 15.18 c0 14.94 -0.12 15.30 -3.18 17.75 -7.71 6.12 -25.46 9.92 -35.14 7.47z"/>
  <path d="M1725.36 381.97 c-6.86 -1.47 -16.89 -5.88 -19.34 -8.57 -1.96 -2.08 -1.84 -2.57 2.08 -6.73 l4.16 -4.53 5.75 4.04 c5.02 3.43 7.10 4.16 14.32 4.53 7.71 0.49 8.69 0.24 11.51 -2.57 6.73 -6.73 2.33 -12.73 -11.51 -16.16 -16.65 -3.92 -23.14 -8.94 -24.12 -18.24 -0.86 -7.35 0.12 -10.90 4.65 -15.92 5.26 -6 12.61 -8.57 22.77 -7.84 8.45 0.61 21.18 5.75 21.18 8.45 0 0.73 -1.35 3.06 -3.06 5.26 l-3.06 4.04 -6.86 -3.55 c-7.71 -3.80 -13.59 -4.28 -18.85 -1.59 -4.04 2.08 -6 7.22 -4.04 10.28 1.71 2.69 5.39 4.41 18 8.20 8.32 2.57 12 4.41 15.67 7.96 4.90 4.65 4.90 4.65 4.41 12.61 -0.37 5.51 -1.22 9.18 -2.94 11.39 -5.14 7.10 -19.47 11.26 -30.73 8.94z"/>
  <path d="M757.82 346.47 l0 -35.50 6.61 0 6.61 0 10.28 15.92 c5.51 8.69 10.65 15.92 11.14 15.92 0.49 0 5.63 -7.10 11.26 -15.92 l10.41 -15.92 6.73 0 6.73 0 -0.24 35.26 -0.37 35.14 -5.75 0.37 -5.88 0.37 0 -23.26 c0 -18.73 -0.37 -23.38 -1.59 -23.38 -0.98 0 -5.88 6.37 -11.14 14.08 -5.14 7.71 -9.79 14.08 -10.41 14.08 -0.61 0 -5.02 -6 -9.79 -13.47 -4.90 -7.35 -9.30 -13.71 -9.92 -14.08 -0.73 -0.49 -1.22 3.92 -1.22 11.39 0 6.61 -0.37 17.14 -0.73 23.26 l-0.86 11.26 -5.88 0 -6 0 0 -35.50z"/>
  <path d="M850.01 380.50 c0.37 -0.86 5.02 -11.75 10.41 -24.24 19.34 -45.30 19.34 -45.18 27.18 -45.30 l4.41 0 14.94 33.54 c8.20 18.36 15.18 34.28 15.67 35.50 0.61 1.71 -0.24 1.96 -5.88 1.96 l-6.61 0 -3.80 -8.57 -3.80 -8.57 -16.53 0 -16.41 0 -3.80 8.57 -3.80 8.57 -6.24 0 c-4.65 0 -6.24 -0.37 -5.75 -1.47z m47.38 -27.91 c0 -2.33 -9.67 -22.65 -11.02 -23.02 -1.22 -0.49 -9.06 15.18 -10.53 21.18 l-0.73 3.06 11.14 0 c6.61 0 11.14 -0.49 11.14 -1.22z"/>
  <path d="M943.91 346.47 l0 -35.50 19.59 0 c25.10 0 30.12 1.84 35.63 12.49 5.02 9.79 1.10 23.75 -7.71 28.53 -2.57 1.35 -4.65 3.06 -4.65 3.80 0 0.61 3.55 6.37 7.96 12.73 4.41 6.37 7.96 12 7.96 12.49 0 0.61 -3.18 0.98 -6.98 0.73 l-7.10 -0.37 -7.96 -11.88 -7.96 -12 -7.96 0.37 -7.96 0.24 -0.37 12 -0.37 11.88 -6 0 -6.12 0 0 -35.50z m39.30 -2.45 c3.43 -1.96 6.24 -8.20 5.39 -12.12 -0.37 -1.96 -2.08 -4.77 -3.80 -6.37 -2.82 -2.69 -4.16 -2.94 -15.55 -2.94 l-12.49 0 -0.37 11.39 -0.37 11.26 12.37 0 c6.86 0 13.47 -0.61 14.81 -1.22z"/>
  <path d="M1028.38 346.47 l0 -35.50 6.12 0 6.12 0 0 35.50 0 35.50 -6.12 0 -6.12 0 0 -35.50z"/>
  <path d="M1371.18 346.47 l0 -35.50 6.12 0 6 0 0.37 14.45 0.37 14.32 16.16 0.37 16.16 0.37 0.86 -5.63 c0.37 -3.18 0.49 -8.81 0 -12.73 -1.10 -10.04 -0.49 -11.14 6.73 -11.14 l6 0 0 35.63 0 35.50 -6.37 -0.37 -6.49 -0.37 -0.37 -14.20 c-0.24 -13.59 -0.49 -14.32 -3.06 -15.06 -3.55 -0.98 -18.61 -0.86 -24.61 0.24 l-4.77 0.86 0.24 11.14 c0.12 6.12 -0.12 12.61 -0.61 14.32 -0.73 3.06 -1.35 3.31 -6.73 3.31 l-6 0 0 -35.50z"/>
  <path d="M1458.10 346.47 l0 -35.50 26.08 0.24 25.95 0.37 0 4.90 0 4.90 -17.14 0.24 c-24.12 0.49 -22.89 -0.12 -22.40 9.92 l0.37 8.20 16.77 0.37 c16.65 0.37 16.89 0.37 17.63 3.31 0.37 1.59 0.37 4.04 -0.12 5.39 -0.73 2.45 -1.71 2.57 -14.69 2.57 -7.71 0 -15.30 0.49 -17.14 1.22 -3.06 1.10 -3.18 1.59 -2.82 9.43 l0.37 8.32 19.96 0.37 19.83 0.24 0 5.51 0 5.51 -26.32 0 -26.32 0 0 -35.50z"/>
  <path d="M1536.45 346.47 l0 -35.50 18.73 0 c10.16 0 20.69 0.61 23.14 1.22 14.94 4.16 20.45 23.87 9.92 35.63 -2.45 2.69 -5.75 5.14 -7.35 5.51 -3.67 0.98 -3.55 1.35 6.24 15.55 4.41 6.37 8.08 12 8.08 12.37 0 0.37 -3.18 0.73 -7.22 0.73 l-7.10 0 -7.84 -11.75 c-4.41 -6.61 -8.94 -12.24 -10.53 -12.85 -1.59 -0.61 -5.26 -0.73 -8.32 -0.24 l-5.51 0.73 0 12 0 12.12 -6.12 0 -6.12 0 0 -35.50z m40.28 -4.41 c5.14 -4.28 5.39 -12 0.61 -16.53 -2.82 -2.69 -4.41 -2.94 -15.92 -3.31 l-12.73 -0.49 0 11.75 0 11.75 12.12 0 c11.26 0 12.49 -0.24 15.92 -3.18z"/>
  <path d="M1615.17 379.89 c0.61 -2.20 19.10 -44.69 26.44 -60.60 l3.67 -8.32 6 0 6 0 14.94 34.28 c8.08 18.73 14.81 34.77 14.81 35.50 0 0.86 -2.33 1.22 -6.37 0.98 l-6.24 -0.37 -3.43 -7.96 -3.31 -7.96 -16.53 -0.37 -16.41 -0.37 -3.80 8.69 -3.92 8.57 -6.24 0 c-5.39 0 -6.24 -0.24 -5.63 -2.08z m47.38 -27.06 c0 -2.82 -9.67 -22.89 -11.14 -23.26 -1.22 -0.24 -3.31 3.31 -6.37 10.41 -2.57 5.88 -4.53 11.51 -4.53 12.37 0 1.10 3.06 1.47 11.02 1.47 6.12 0 11.02 -0.49 11.02 -0.98z"/>
  <path d="M1784.98 346.47 l0 -35.50 6 0 c4.28 0 6.24 0.49 6.73 1.96 0.98 2.45 0.98 17.38 -0.12 46.15 l-0.73 22.89 -6 0 -5.88 0 0 -35.50z"/>
  <path d="M1827.83 346.47 l0 -35.63 6.98 0.37 6.86 0.37 9.55 15.30 c5.14 8.45 10.04 15.30 10.77 15.30 0.73 0 6 -6.86 11.51 -15.30 l10.16 -15.30 6.98 -0.37 6.98 -0.37 0 35.63 0 35.63 -6.37 -0.37 -6.49 -0.37 0.24 -22.40 c0.24 -27.30 0 -27.55 -12.49 -8.94 -4.65 7.10 -9.18 12.98 -9.79 13.22 -0.73 0.24 -5.63 -6 -10.90 -13.71 -5.26 -7.71 -10.04 -14.08 -10.65 -14.08 -0.61 0 -1.10 10.53 -1.10 23.26 l0 23.26 -6.12 0 -6.12 0 0 -35.50z"/>
 </g>
 <g fill="#c59039">
  <path d="M1526.66 531.94 l0 -6.73 89.74 0.24 89.62 0.37 0.37 6.49 0.37 6.37 -89.98 0 -90.11 0 0 -6.73z"/>
  <path d="M1720.09 531.94 l0 -6.73 88.76 0 88.76 0 0 6.73 0 6.73 -88.76 0 -88.76 0 0 -6.73z"/>
  <path d="M552.14 536.11 c0 -0.98 5.88 -8.32 13.22 -16.41 13.10 -14.81 39.30 -44.81 46.15 -53.13 16.16 -19.59 33.18 -38.81 34.52 -39.05 1.22 -0.37 1.59 5.14 1.59 28.28 l0 28.65 -9.92 10.65 c-17.63 18.73 -34.65 29.87 -57.54 37.58 -12.49 4.16 -28.04 6.12 -28.04 3.43z"/>
  <path d="M804.34 489.34 c0 -0.73 1.59 -2.20 3.67 -3.06 2.20 -1.10 4.16 -3.18 5.14 -5.88 0.73 -2.33 2.20 -4.16 3.06 -4.16 2.33 0 1.96 6.24 -0.61 9.30 -3.67 4.65 -11.26 7.22 -11.26 3.80z"/>
  <path d="M865.07 489.46 c-1.10 -3.18 -1.96 -18.12 -1.22 -18.12 0.49 0 1.59 0.98 2.45 2.08 1.35 1.96 1.59 1.96 3.06 -1.22 0.86 -1.84 2.45 -3.31 3.80 -3.31 2.82 0 2.82 0.49 -0.86 5.88 -2.20 3.18 -3.06 6.12 -3.06 10.28 0 4.41 -0.49 5.88 -1.84 5.88 -1.10 0 -2.08 -0.73 -2.33 -1.47z"/>
  <path d="M962.27 477.46 c0 -12.37 0.24 -13.59 2.20 -13.22 1.84 0.37 2.08 1.96 2.08 13.22 0 11.26 -0.24 12.85 -2.08 13.22 -1.96 0.37 -2.20 -0.86 -2.20 -13.22z"/>
  <path d="M985.17 490.07 c-0.49 -0.37 -0.86 -5.39 -0.86 -11.02 0 -9.30 -0.24 -10.16 -2.45 -10.16 -1.59 0 -2.45 -0.86 -2.45 -2.45 0 -2.20 0.86 -2.45 8.57 -2.45 7.71 0 8.57 0.24 8.57 2.45 0 1.96 -0.86 2.45 -3.67 2.45 l-3.67 0 0 11.02 c0 8.32 -0.37 11.02 -1.59 11.02 -0.98 0 -2.08 -0.37 -2.45 -0.86z"/>
  <path d="M1092.66 490.07 c-5.39 -1.22 -7.35 -8.32 -3.31 -12.24 1.22 -1.35 2.08 -4.04 2.08 -7.10 l0 -4.90 5.51 0 c5.14 0 5.51 0.24 5.88 3.43 0.24 1.96 -0.37 4.41 -1.47 5.63 -1.71 1.96 -1.71 2.33 0 4.53 1.35 1.59 2.08 1.84 2.45 0.86 0.86 -2.08 4.16 -1.96 4.16 0.12 0 0.86 -0.61 3.31 -1.35 5.26 -1.47 4.53 -6.49 6.12 -13.96 4.41z m6.12 -4.04 c1.22 -1.96 -1.71 -6.12 -4.28 -6.12 -1.71 0 -2.45 0.86 -2.45 2.94 0 3.80 4.90 6.12 6.73 3.18z"/>
  <path d="M1143.46 477.46 l0 -13.47 4.28 0 c2.94 0 4.28 0.61 4.28 1.84 0 0.98 -0.86 1.84 -1.84 1.84 -1.47 0 -1.84 1.84 -1.84 9.18 0 8.32 0.24 9.18 2.45 9.18 1.59 0 2.45 0.86 2.45 2.45 0 2.08 -0.86 2.45 -4.90 2.45 l-4.90 0 0 -13.47z"/>
  <path d="M1251.20 479.91 c0 -10.16 -0.12 -11.02 -2.45 -11.02 -1.59 0 -2.45 -0.86 -2.45 -2.45 0 -2.20 0.86 -2.45 7.96 -2.45 7.10 0 7.96 0.24 7.96 2.33 0 1.71 -0.98 2.57 -3.31 2.82 -3.43 0.37 -3.43 0.37 -3.80 11.14 -0.24 8.32 -0.73 10.65 -2.08 10.65 -1.47 0 -1.84 -2.20 -1.84 -11.02z"/>
  <path d="M1270.05 487.99 c0.37 -1.59 2.33 -6.61 4.41 -11.02 3.43 -7.84 3.80 -8.20 7.59 -7.84 3.55 0.37 4.16 1.10 7.22 8.57 5.14 12.73 5.26 13.22 2.57 13.22 -1.59 0 -2.69 -1.10 -3.18 -3.06 -0.73 -2.82 -1.35 -3.06 -6.86 -3.06 -5.51 0 -6.37 0.37 -7.35 3.06 -1.59 4.04 -5.51 4.16 -4.41 0.12z"/>
  <path d="M1352.81 477.46 c0 -12.37 0.24 -13.59 2.20 -13.22 1.10 0.24 2.20 1.59 2.45 3.18 0.24 1.47 1.10 2.69 1.96 2.69 0.86 0 2.33 1.35 3.18 3.06 0.86 1.71 2.08 3.06 2.57 3.06 0.49 0 2.57 -2.69 4.77 -6.12 6.12 -9.67 7.35 -8.45 7.35 7.47 0 12.24 -0.24 13.47 -2.08 13.10 -1.71 -0.24 -2.33 -1.84 -2.57 -6.86 -0.24 -3.43 -0.73 -6.37 -1.22 -6.37 -0.37 0 -1.96 1.47 -3.31 3.31 l-2.69 3.18 -3.55 -4.65 -3.55 -4.77 -0.61 7.96 c-0.49 6.12 -1.10 7.96 -2.69 8.20 -1.96 0.37 -2.20 -0.86 -2.20 -13.22z"/>
  <path d="M1451.98 477.46 c0 -12.61 0.12 -13.47 2.45 -13.47 2.08 0 2.45 0.86 2.45 4.90 0 4.65 1.47 6.37 3.06 3.67 0.37 -0.61 1.96 -1.22 3.43 -1.22 1.96 0 2.20 0.37 1.10 1.47 -2.45 2.45 -1.71 4.90 3.43 10.90 5.63 6.61 5.75 7.22 2.57 7.22 -1.35 0 -3.92 -1.96 -5.75 -4.28 -1.71 -2.33 -4.28 -4.28 -5.51 -4.28 -1.84 0 -2.33 0.86 -2.33 4.28 0 3.43 -0.49 4.28 -2.45 4.28 -2.33 0 -2.45 -0.86 -2.45 -13.47z"/>
  <path d="M1555.43 481.50 l0 -9.55 4.41 -0.37 c3.80 -0.37 4.90 0.24 7.10 3.31 2.57 3.67 3.43 8.69 1.47 8.69 -0.61 0 -1.35 -0.86 -1.84 -1.84 -0.37 -0.98 -2.08 -1.84 -3.80 -1.84 -2.82 0 -3.06 0.49 -3.06 5.51 0 4.41 -0.37 5.51 -2.20 5.51 -1.84 0 -2.08 -1.22 -2.08 -9.43z"/>
  <path d="M1672.35 480.65 c0 -9.67 0.24 -10.53 2.45 -10.53 1.84 0 2.45 0.86 2.45 3.06 0 2.57 0.61 3.06 3.55 3.06 4.28 0 6.37 -2.33 5.39 -6 -0.61 -2.33 -0.24 -2.69 1.59 -2.33 2.69 0.49 3.80 5.75 1.71 9.43 -0.73 1.35 -3.06 2.82 -5.51 3.31 -4.77 0.86 -6.37 2.33 -6.98 6.61 -0.12 1.71 -1.35 3.18 -2.45 3.43 -1.96 0.37 -2.20 -0.73 -2.20 -10.04z"/>
  <path d="M1761.23 487.13 c-0.37 -2.08 -0.73 -8.08 -0.73 -13.34 0 -8.45 0.24 -9.55 2.45 -10.16 1.35 -0.37 2.69 -0.12 3.06 0.37 0.37 0.49 0.24 6.86 -0.24 13.96 -0.49 8.94 -1.22 12.98 -2.20 12.98 -0.86 0 -1.84 -1.71 -2.33 -3.80z"/>
  <path d="M1810.32 490.07 c-0.49 -0.37 -0.86 -4.77 -0.86 -9.79 0 -8.08 0.24 -8.94 2.45 -8.94 2.20 0 2.45 0.86 2.45 7.35 0 6.49 0.24 7.35 2.45 7.35 1.59 0 2.45 0.86 2.45 2.45 0 1.96 -0.86 2.45 -4.04 2.45 -2.33 0 -4.53 -0.37 -4.90 -0.86z"/>
  <path d="M893.96 486.89 c-2.45 -2.94 -3.18 -8.94 -1.10 -9.79 1.22 -0.49 2.08 0.24 2.69 1.96 0.61 2.33 0.98 2.08 2.69 -2.45 1.59 -4.77 2.20 -5.26 5.88 -5.26 3.43 0 4.28 0.61 5.39 3.80 1.84 5.26 1.71 7.22 -0.49 7.22 -0.98 0 -1.84 -0.86 -1.84 -1.96 0 -3.80 -5.26 -1.35 -6.73 3.18 -1.59 4.65 -4.28 6 -6.49 3.31z"/>
  <path d="M1303.84 474.89 c0 -9.92 0.24 -11.02 2.20 -10.65 1.71 0.37 2.08 2.08 2.45 11.14 0.37 10.04 0.24 10.65 -2.20 10.65 -2.33 0 -2.45 -0.73 -2.45 -11.14z"/>
  <path d="M1787.43 485.18 c-10.28 -0.61 -10.16 -0.49 -6.24 -9.79 2.69 -6.73 3.92 -8.45 6.37 -8.69 2.33 -0.24 3.31 0.49 4.28 3.06 0.73 1.84 2.57 6.37 4.04 9.92 2.33 5.88 2.33 6.37 0.37 6.12 -1.10 -0.12 -5.14 -0.37 -8.81 -0.61z"/>
  <path d="M931.67 473.79 c0 -8.94 0.24 -9.79 2.45 -9.79 2.20 0 2.45 0.86 2.45 9.79 0 8.94 -0.24 9.79 -2.45 9.79 -2.20 0 -2.45 -0.86 -2.45 -9.79z"/>
  <path d="M1326.86 426.29 c-324.92 -0.12 -569.04 -0.73 -569.04 -1.35 0 -4.53 -18 -4.41 571.98 -4.77 l567.81 -0.37 0 3.06 c0 1.71 -0.37 3.18 -0.86 3.43 -0.61 0.24 -256.97 0.24 -569.90 0z"/>
 </g>
 <g fill="#d5d5d4">
  <path d="M1145.91 531.94 l0 -6.73 88.76 0 88.76 0 0 6.73 0 6.73 -88.76 0 -88.76 0 0 -6.73z"/>
  <path d="M1337.75 537.82 c-0.49 -0.37 -0.86 -3.43 -0.86 -6.73 l0 -5.88 88.15 0 88.15 0 0 6.73 0 6.73 -87.29 0 c-48.11 0 -87.78 -0.37 -88.15 -0.86z"/>
  <path d="M1006.35 477.46 c0 -12.61 0.12 -13.47 2.45 -13.47 2.33 0 2.45 0.86 2.45 13.47 0 12.61 -0.12 13.47 -2.45 13.47 -2.33 0 -2.45 -0.86 -2.45 -13.47z"/>
  <path d="M1700.75 477.22 c0.37 -10.90 0.61 -12.61 2.57 -12.98 1.84 -0.37 2.08 0.86 2.08 12.49 0 12.24 -0.12 12.98 -2.45 12.98 -2.45 0 -2.57 -0.61 -2.20 -12.49z"/>
  <path d="M1516.37 478.44 c-0.37 -1.59 -0.73 -4.28 -0.73 -6.12 0 -2.57 -0.61 -3.43 -2.45 -3.43 -1.71 0 -2.45 -0.86 -2.45 -2.57 0 -2.08 0.61 -2.45 4.65 -2.08 l4.53 0.37 0.37 8.32 c0.24 6.49 0 8.20 -1.35 8.20 -0.98 0 -2.08 -1.22 -2.57 -2.69z"/>
  <path d="M1761.35 471.10 c-0.73 -7.47 -0.86 -6.73 2.20 -7.35 2.08 -0.37 2.45 0.37 2.57 5.14 l0.24 5.51 -0.98 -5.51 -0.86 -5.51 -0.12 7.10 c-0.24 8.69 -2.20 9.18 -3.06 0.61z"/>
  <path d="M526.92 384.79 l0.12 -7.10 60.36 -0.37 60.23 -0.24 -0.24 5.75 -0.12 5.88 -0.49 -5.14 -0.49 -5.26 -59.25 0 -59.25 0 -0.49 6.73 -0.49 6.73 0.12 -6.98z"/>
  <path d="M1383.91 366.67 c0 -6.73 0.12 -9.30 0.37 -5.75 0.24 3.55 0.24 9.06 0 12.24 -0.24 3.18 -0.37 0.24 -0.37 -6.49z"/>
  <path d="M1839.34 356.26 c0 -9.79 0.24 -13.71 0.37 -8.81 0.24 4.77 0.24 12.85 0 17.75 -0.12 4.77 -0.37 0.86 -0.37 -8.94z"/>
  <path d="M769.70 359.93 c-0.98 -7.59 0.37 -28.89 1.59 -26.32 0.37 0.73 0.37 8.69 0 17.75 -0.61 15.67 -0.61 16.04 -1.59 8.57z"/>
  <path d="M1797.71 332.39 c0 -10.77 0.24 -15.06 0.37 -9.43 0.24 5.63 0.24 14.45 0 19.59 -0.12 5.14 -0.37 0.61 -0.37 -10.16z"/>
 </g>
 <g fill="#b68638">
  <path d="M550.67 536.60 c0.73 -1.35 2.20 -3.06 3.18 -4.04 1.71 -1.35 1.96 -1.10 1.96 1.71 0 1.71 -0.49 3.18 -1.10 3.18 -0.61 0 -2.08 0.37 -3.18 0.86 -1.84 0.61 -1.96 0.37 -0.86 -1.71z"/>
  <path d="M764.80 488.48 c-3.80 -3.06 -6.24 -9.79 -5.14 -14.69 1.22 -5.39 7.10 -9.79 12.98 -9.79 5.88 0 9.67 1.84 9.67 4.53 0 1.84 -0.49 1.84 -9.18 -0.37 -3.67 -0.98 -9.18 4.53 -9.18 9.06 0 6 3.55 9.06 11.02 9.79 5.88 0.49 6.24 0.73 4.28 2.20 -3.43 2.57 -10.77 2.08 -14.45 -0.73z"/>
  <path d="M798.83 489.58 c-4.65 -2.69 -6.73 -6.37 -6.73 -12.49 0 -5.14 0.49 -6.49 3.80 -9.55 5.39 -5.02 13.22 -5.02 18.36 0 3.06 3.06 3.55 4.53 3.55 10.16 -0.12 5.26 -0.37 6 -1.35 4.16 -1.10 -1.84 -1.59 -1.96 -2.45 -0.61 -0.86 1.10 -0.98 0.61 -0.37 -1.59 0.73 -3.18 -1.10 -8.08 -3.67 -9.79 -0.73 -0.49 -3.43 -0.98 -5.88 -0.98 -3.80 0 -4.90 0.61 -6.49 3.67 -0.98 1.96 -1.84 4.41 -1.84 5.51 0 3.18 6.73 9.18 10.41 9.18 4.53 0 3.31 2.94 -1.35 3.31 -1.96 0.24 -4.65 -0.24 -6 -0.98z"/>
  <path d="M829.32 489.34 c-0.37 -0.98 -0.37 -6.86 -0.24 -13.22 l0.37 -11.51 6.24 -0.37 c7.71 -0.49 11.88 2.33 11.88 8.08 0 4.77 -1.96 7.22 -6.86 8.32 -5.39 1.10 -6.98 2.69 -6.98 6.73 0 3.67 -3.18 5.14 -4.41 1.96z m13.59 -14.32 c0.37 -0.73 0.37 -2.33 0 -3.67 -0.61 -1.84 -1.84 -2.45 -5.02 -2.45 -3.80 0 -4.16 0.24 -4.16 3.67 0 3.43 0.37 3.67 4.16 3.67 2.33 0 4.65 -0.61 5.02 -1.22z"/>
  <path d="M864.94 489.95 c-0.37 -0.37 -0.61 -3.06 -0.61 -6 0 -3.67 -1.10 -6.98 -3.80 -11.39 -3.43 -5.63 -3.80 -8.57 -1.10 -8.57 0.61 0 2.82 2.94 4.90 6.49 3.92 6.86 4.90 14.94 2.20 17.87 -1.10 1.22 -1.10 1.47 -0.12 0.86 0.73 -0.37 1.71 -0.37 2.08 0.24 0.61 1.10 -2.45 1.47 -3.55 0.49z"/>
  <path d="M894.57 490.07 c-0.86 -1.59 -6.98 -22.04 -6.98 -23.51 0 -0.73 0.73 -1.35 1.71 -1.35 1.71 0 5.14 8.20 6 14.45 0.24 1.47 1.35 3.43 2.45 4.28 1.35 0.98 1.84 2.45 1.35 4.28 -0.73 2.57 -3.43 3.67 -4.53 1.84z"/>
  <path d="M908.65 485.42 c-0.86 -3.06 -1.47 -6.61 -1.47 -7.96 0 -3.55 -6.86 -3.43 -7.96 0.12 -0.49 1.35 -1.10 2.33 -1.35 1.96 -0.24 -0.24 0.73 -3.92 2.08 -8.08 3.31 -9.79 5.63 -9.67 8.69 0.86 1.22 4.16 2.69 7.59 3.31 7.59 0.61 0 1.96 -3.31 3.06 -7.47 1.84 -6.37 4.53 -9.92 6.24 -8.20 0.24 0.24 -1.22 6.37 -3.43 13.59 -4.41 14.94 -6.73 16.77 -9.18 7.59z"/>
  <path d="M932.64 490.07 c-0.12 -0.61 -0.24 -6.61 -0.24 -13.47 l-0.12 -12.61 6.49 0 c5.26 0 7.10 0.61 9.43 3.06 3.80 3.67 3.80 5.63 0.12 10.04 l-2.94 3.43 2.94 4.28 c3.43 4.90 3.67 6.12 1.22 6.12 -0.98 0 -3.31 -1.96 -5.14 -4.28 -1.71 -2.33 -4.28 -4.28 -5.51 -4.28 -1.84 0 -2.33 0.86 -2.33 4.28 0 2.94 -0.61 4.28 -1.84 4.28 -0.98 0 -1.96 -0.37 -2.08 -0.86z m12.49 -15.67 c2.45 -2.94 0.49 -5.51 -4.28 -5.51 -3.92 0 -4.28 0.24 -4.28 3.67 0 3.18 0.37 3.67 3.55 3.67 1.96 0 4.16 -0.86 5.02 -1.84z"/>
  <path d="M963.74 488.60 c0.86 -1.47 0.98 -5.63 0.12 -13.34 -0.98 -9.92 -0.86 -11.26 0.86 -11.02 1.47 0.37 1.96 2.82 2.20 12.73 0.24 11.51 0.12 12.49 -2.08 13.10 -2.08 0.49 -2.20 0.24 -1.10 -1.47z"/>
  <path d="M1007.57 477.46 l0 -13.47 7.96 0 c7.10 0 7.96 0.24 7.96 2.33 0 2.08 -0.98 2.45 -5.75 2.82 -5.02 0.37 -5.88 0.73 -6.24 3.18 -0.37 2.45 0.12 2.69 5.14 2.69 8.81 0 8.45 4.28 -0.49 5.14 -3.31 0.24 -4.41 0.98 -4.65 3.06 -0.37 2.45 0.24 2.69 6.12 3.06 4.77 0.24 6.49 0.86 6.49 2.20 0 1.47 -1.84 1.96 -8.20 2.20 l-8.32 0.37 0 -13.59z"/>
  <path d="M1035.12 482.12 c-0.49 -4.90 -0.61 -10.90 -0.37 -13.22 l0.37 -4.28 6.98 -0.37 c5.75 -0.24 7.47 0.12 9.55 2.20 3.18 3.18 3.18 7.35 -0.12 11.51 l-2.57 3.31 3.18 4.16 c3.80 5.02 3.92 5.51 0.73 5.51 -1.47 0 -3.67 -1.96 -5.63 -4.90 -4.16 -6.24 -7.10 -6.12 -7.59 0.37 -0.24 2.82 -0.98 4.53 -2.08 4.53 -1.10 0 -1.84 -2.69 -2.45 -8.81z m13.47 -9.55 c0 -2.69 -0.49 -3.06 -4.28 -3.06 -3.80 0 -4.28 0.37 -4.65 3.43 -0.37 3.31 -0.24 3.43 4.28 3.06 4.04 -0.37 4.65 -0.73 4.65 -3.43z"/>
  <path d="M1089.60 488.48 c-3.06 -3.06 -3.18 -7.59 -0.12 -10.28 1.84 -1.59 2.20 -3.18 1.71 -6.37 -0.37 -2.45 -0.12 -4.90 0.86 -6 1.84 -2.20 7.47 -2.45 9.55 -0.37 2.08 2.08 1.84 8.32 -0.24 8.32 -1.10 0 -1.47 -0.86 -1.10 -2.57 0.61 -2.20 0.24 -2.45 -3.43 -2.08 -3.55 0.37 -4.16 0.86 -4.16 3.55 0 1.84 -0.98 4.41 -2.08 5.63 -3.55 3.92 -2.69 6.24 2.57 7.84 6 1.84 7.96 1.10 10.04 -3.67 0.98 -2.20 2.57 -3.80 3.80 -3.80 2.57 0 2.69 0.49 0.86 3.80 -0.98 1.96 -0.86 3.06 0.86 4.90 1.10 1.22 1.84 2.33 1.59 2.45 -0.24 0 -4.53 0.24 -9.43 0.61 -7.59 0.37 -9.18 0.12 -11.26 -1.96z"/>
  <path d="M1143.46 477.46 l0 -13.47 6.12 0 c10.65 0 15.92 4.16 15.92 12.73 0 9.55 -5.14 14.20 -15.92 14.20 l-6.12 0 0 -13.47z m11.14 8.57 c3.06 0 4.04 -0.73 5.51 -4.41 3.06 -7.22 -0.49 -12.49 -8.69 -13.10 l-4.53 -0.24 -0.49 8.45 c-0.49 9.18 0 11.02 2.82 10.04 0.98 -0.37 3.43 -0.73 5.39 -0.73z"/>
  <path d="M1177.38 490.07 c-0.49 -0.37 -0.86 -6.49 -0.86 -13.47 0 -11.75 0.12 -12.61 2.45 -12.61 2.33 0 2.45 0.86 2.45 13.47 0 10.41 -0.37 13.47 -1.59 13.47 -0.98 0 -2.08 -0.37 -2.45 -0.86z"/>
  <path d="M1196.72 486.89 c-4.77 -4.77 -5.63 -10.53 -2.57 -16.65 3.31 -6.24 13.71 -8.32 19.22 -3.92 3.92 3.18 2.08 4.65 -3.31 2.69 -3.43 -1.22 -5.14 -1.22 -7.96 -0.12 -9.43 3.92 -3.67 21.06 5.88 17.63 3.43 -1.10 5.63 -6.61 2.69 -6.61 -1.10 0 -0.98 -0.49 0.12 -1.84 0.86 -0.98 2.57 -1.84 3.80 -1.84 1.84 0 2.33 0.86 2.33 4.16 0 6.12 -3.31 9.43 -10.16 10.16 -5.26 0.61 -6 0.37 -10.04 -3.67z"/>
  <path d="M1228.43 489.34 c-0.37 -0.98 -0.37 -6.86 -0.24 -13.22 0.37 -9.79 0.73 -11.51 2.57 -11.88 1.84 -0.37 2.08 0.86 2.08 13.10 0 11.39 -0.24 13.59 -1.84 13.59 -1.10 0 -2.20 -0.73 -2.57 -1.59z"/>
  <path d="M1304.21 477.46 c0.24 -11.26 0.49 -13.47 2.08 -13.22 1.47 0.37 1.96 2.69 2.20 11.02 l0.37 10.65 5.75 0.37 c4.16 0.24 5.75 0.86 5.75 2.20 0 1.47 -1.84 1.96 -8.20 2.20 l-8.08 0.37 0.12 -13.59z"/>
  <path d="M1388.32 489.46 c0 -0.86 2.08 -6.73 4.53 -12.85 6.24 -15.18 7.96 -15.30 14.08 -0.61 6.73 15.92 6.49 14.94 3.80 14.94 -1.35 0 -3.06 -1.35 -3.80 -3.06 -1.22 -2.57 -2.20 -3.06 -6.98 -3.06 -4.77 0 -5.75 0.37 -6.73 3.06 -1.22 3.18 -4.90 4.28 -4.90 1.59z"/>
  <path d="M1422.60 477.46 l0 -13.47 6.73 0 c5.14 0 7.35 0.61 9.18 2.45 3.18 3.18 3.06 7.35 -0.12 11.51 l-2.57 3.31 3.18 4.16 c3.80 5.02 3.92 5.51 0.73 5.51 -1.47 0 -3.67 -1.96 -5.63 -4.90 -4.16 -6.24 -7.10 -6.12 -7.59 0.37 -0.24 2.94 -0.98 4.53 -2.20 4.53 -1.35 0 -1.71 -2.57 -1.71 -13.47z m12.85 -4.90 c0 -2.69 -0.49 -3.06 -4.28 -3.06 -3.80 0 -4.28 0.37 -4.65 3.43 -0.37 3.31 -0.24 3.43 4.28 3.06 4.04 -0.37 4.65 -0.73 4.65 -3.43z"/>
  <path d="M1483.07 489.34 c-0.37 -0.98 -0.37 -6.86 -0.24 -13.22 l0.37 -11.51 8.32 -0.37 c7.59 -0.37 8.32 -0.12 7.96 1.84 -0.24 1.59 -1.84 2.33 -5.88 2.82 -4.53 0.49 -5.63 1.10 -5.88 3.43 -0.37 2.45 0.12 2.69 5.26 2.69 4.77 0 5.63 0.37 5.26 2.20 -0.24 1.47 -1.84 2.20 -5.63 2.45 -4.53 0.37 -5.14 0.73 -5.14 3.43 0 2.69 0.49 2.94 6.12 2.94 5.26 0 6.12 0.37 6.12 2.45 0 2.20 -0.86 2.45 -7.96 2.45 -5.51 0 -8.20 -0.49 -8.69 -1.59z"/>
  <path d="M1516.62 479.67 l-0.37 -11.39 -3.31 0.37 c-2.82 0.37 -3.43 -0.12 -3.43 -2.08 0 -2.45 0.73 -2.57 9.92 -2.57 8.69 0 9.79 0.24 9.43 2.08 -0.24 1.35 -1.71 2.33 -3.67 2.57 -3.31 0.37 -3.31 0.49 -3.67 11.02 -0.37 8.94 -0.73 10.65 -2.45 11.02 -1.84 0.37 -2.20 -0.98 -2.45 -11.02z"/>
  <path d="M1538.90 477.46 c0 -12.61 0.12 -13.47 2.45 -13.47 2.33 0 2.45 0.86 2.45 13.47 0 12.61 -0.12 13.47 -2.45 13.47 -2.33 0 -2.45 -0.86 -2.45 -13.47z"/>
  <path d="M1555.43 477.95 c0.12 -7.10 0.73 -13.22 1.22 -13.71 0.49 -0.49 2.82 1.59 5.39 4.53 2.45 3.06 5.63 6.86 7.10 8.57 l2.69 3.18 0.12 -8.32 c0 -7.35 0.24 -8.32 2.20 -7.96 1.84 0.37 2.08 2.20 2.45 13.59 0.24 11.88 0.12 13.10 -1.84 13.10 -1.96 -0.12 -6 -5.39 -10.04 -13.10 -0.73 -1.59 -2.57 -2.82 -3.92 -2.82 -2.33 0 -2.45 0.61 -2.08 7.71 0.24 6.49 0 7.71 -1.59 7.84 -1.84 0.12 -1.96 -1.47 -1.71 -12.61z"/>
  <path d="M1594.60 489.83 c-4.90 -2.08 -7.35 -6.24 -7.35 -12.61 0 -5.26 0.49 -6.49 4.04 -9.67 2.69 -2.45 5.26 -3.55 8.20 -3.55 5.02 0 10.65 2.33 10.04 4.16 -0.49 1.35 -2.94 1.47 -8.20 0.12 -2.33 -0.61 -3.92 0 -6.49 2.33 -3.80 3.55 -4.28 8.45 -1.35 12.73 3.67 5.26 15.18 2.57 13.10 -3.06 -0.37 -0.98 0.49 -1.59 1.96 -1.59 2.08 0 2.57 0.73 2.57 3.55 0 6.61 -8.94 10.65 -16.53 7.59z"/>
  <path d="M1646.88 489.83 c-2.45 -1.47 1.35 -4.04 4.90 -3.18 6.86 1.59 7.96 -5.02 1.10 -7.35 -4.28 -1.47 -8.69 -5.75 -8.69 -8.69 0 -2.94 4.77 -6.61 8.69 -6.61 5.39 0 8.94 2.20 7.22 4.28 -1.10 1.35 -2.08 1.35 -4.28 0.37 -2.20 -0.98 -3.43 -0.98 -4.90 0.24 -2.82 2.33 -2.20 3.43 2.69 5.51 9.06 3.80 11.51 9.06 6.49 14.08 -2.57 2.57 -10.16 3.31 -13.22 1.35z"/>
  <path d="M1672.71 477.46 l-0.12 -13.47 6.61 0 c5.02 0 7.22 0.61 9.06 2.45 2.82 2.82 2.94 3.55 0.73 6.49 -1.59 1.96 -1.71 1.96 -2.45 -0.86 -0.49 -2.08 -1.84 -3.18 -4.53 -3.80 -2.08 -0.49 -4.04 -0.61 -4.28 -0.24 -0.37 0.37 -0.73 5.51 -0.98 11.39 -0.24 8.20 -0.73 11.02 -2.08 11.26 -1.35 0.24 -1.71 -2.33 -1.96 -13.22z"/>
  <path d="M1701.48 490.07 c-0.24 -0.49 -0.24 -6.61 0 -13.47 l0.49 -12.61 7.71 0 c4.28 0 8.08 0.49 8.45 1.10 1.10 1.84 -2.08 3.55 -7.22 4.04 -3.92 0.24 -5.02 0.86 -5.26 3.06 -0.37 2.45 0.24 2.69 5.51 3.06 4.28 0.24 5.88 0.86 5.88 2.20 0 1.35 -1.59 1.96 -5.75 2.20 -5.26 0.37 -5.88 0.73 -5.88 3.31 0 2.69 0.61 2.94 6.49 3.31 4.65 0.24 6.37 0.86 6.37 2.20 0 1.47 -1.84 1.96 -8.20 2.20 -4.41 0.24 -8.32 -0.12 -8.57 -0.61z"/>
  <path d="M1731.60 486.77 c-3.43 -3.43 -4.16 -5.14 -4.16 -9.30 0 -4.16 0.73 -5.88 4.16 -9.30 3.31 -3.31 5.14 -4.16 9.06 -4.16 5.75 0 12.12 4.16 8.57 5.51 -1.10 0.49 -3.18 0.24 -4.53 -0.49 -5.63 -3.06 -12.37 1.84 -12.37 9.18 0 6.49 6.73 10.28 12.73 7.22 2.57 -1.35 3.92 -1.59 4.90 -0.61 2.20 2.33 -3.67 6.12 -9.30 6.12 -3.92 0 -5.75 -0.86 -9.06 -4.16z"/>
  <path d="M1761.23 486.89 c-0.37 -1.96 -0.73 -7.96 -0.73 -13.22 0 -7.59 0.37 -9.67 1.71 -9.67 1.47 0 1.84 2.69 2.20 13.22 0.24 9.55 0 13.34 -1.10 13.34 -0.73 0 -1.71 -1.71 -2.08 -3.67z"/>
  <path d="M1775.18 490.32 c0 -1.96 4.16 -10.41 5.14 -10.41 0.61 0 0.73 -0.73 0.37 -1.47 -0.49 -0.86 0 -0.61 1.10 0.73 1.47 1.84 2.94 2.20 7.47 1.59 5.39 -0.49 5.88 -0.37 8.08 3.31 1.22 2.08 2.33 4.53 2.33 5.39 0 2.69 -3.67 1.59 -4.90 -1.59 -0.98 -2.69 -1.96 -3.06 -6.73 -3.06 -4.53 0 -5.75 0.49 -7.47 3.06 -1.71 2.57 -5.39 4.28 -5.39 2.45z"/>
  <path d="M1810.44 490.07 c-0.12 -0.49 -0.37 -6.49 -0.37 -13.22 0 -10.90 0.24 -12.24 2.33 -12.61 2.08 -0.49 2.20 0.24 1.35 11.02 l-0.86 11.51 6.49 -0.12 c5.14 0 6.61 0.37 6.61 1.84 0 1.35 -1.84 1.96 -7.59 2.20 -4.16 0.24 -7.71 -0.12 -7.96 -0.61z"/>
  <path d="M1836.40 477.59 c0 -11.14 0.37 -13.59 1.84 -13.59 2.57 0 3.18 3.92 2.82 15.92 -0.37 8.69 -0.73 10.41 -2.45 10.77 -1.96 0.37 -2.20 -0.86 -2.20 -13.10z"/>
  <path d="M1854.39 489.58 c-3.18 -1.96 -1.10 -3.92 3.31 -3.06 4.41 0.86 9.06 -1.59 7.59 -4.04 -0.49 -0.73 -3.43 -2.57 -6.37 -3.92 -6.37 -3.06 -7.96 -6.86 -4.90 -11.51 1.59 -2.45 3.06 -3.06 6.73 -3.06 4.65 0 8.32 2.45 6.98 4.77 -0.37 0.61 -2.94 0.86 -5.63 0.49 -7.10 -0.98 -6.61 2.45 0.98 6 5.14 2.57 5.75 3.31 6.12 7.35 0.24 3.43 -0.24 4.90 -2.45 6.37 -3.06 2.20 -9.06 2.57 -12.37 0.61z"/>
  <path d="M1885.37 480.03 l0 -11.02 -3.31 -0.37 c-2.08 -0.24 -3.55 -1.22 -3.80 -2.45 -0.37 -1.96 0.73 -2.20 9.55 -2.20 8.81 0 9.92 0.24 9.55 2.08 -0.24 1.35 -1.71 2.33 -3.80 2.57 l-3.31 0.37 0 11.02 c0 10.04 -0.12 10.90 -2.45 10.90 -2.33 0 -2.45 -0.86 -2.45 -10.90z"/>
  <path d="M1353.42 475.87 c0 -8.81 0.37 -11.88 1.59 -11.88 2.08 0 11.26 14.45 11.26 17.63 -0.12 2.20 -0.61 2.08 -3.67 -1.71 -2.08 -2.33 -3.67 -4.65 -3.67 -5.14 0 -0.49 -0.49 -0.98 -1.22 -0.98 -0.61 0 -1.22 1.47 -1.22 3.43 -0.12 1.84 -0.86 4.90 -1.59 6.86 -1.35 3.18 -1.59 2.33 -1.47 -8.20z"/>
  <path d="M1273.36 480.89 c-0.12 -0.49 1.35 -4.53 3.18 -8.94 3.92 -9.67 6.37 -10.28 9.18 -2.45 2.08 5.51 2.08 5.51 -0.37 4.28 -4.16 -2.33 -7.71 -0.98 -9.92 3.67 -1.10 2.33 -2.08 3.92 -2.08 3.43z"/>
  <path d="M1454.43 478.20 c0 -0.86 -0.37 -4.16 -0.73 -7.35 -0.73 -4.65 -0.49 -5.63 1.22 -5.63 1.47 0 1.96 1.10 1.96 4.28 0 2.33 0.49 4.28 0.98 4.28 0.61 0 2.82 -2.20 5.02 -4.90 3.43 -4.41 8.69 -6.61 8.69 -3.92 0 1.59 -14.20 14.94 -15.79 14.94 -0.73 0 -1.35 -0.73 -1.35 -1.71z"/>
  <path d="M1789.88 473.79 c-0.98 -2.33 -2.45 -3.67 -3.92 -3.67 -1.71 0 -2.20 -0.61 -1.71 -1.96 0.37 -1.10 0.73 -2.20 0.73 -2.45 0 -0.24 1.10 -0.49 2.45 -0.49 1.59 0 3.06 1.71 4.90 5.63 2.94 6.73 2.94 6.61 0.73 6.61 -0.86 0 -2.33 -1.59 -3.18 -3.67z"/>
  <path d="M1368.24 475.26 c-1.10 -1.71 5.14 -11.26 7.35 -11.26 2.82 0 1.96 3.18 -2.33 7.96 -2.69 2.94 -4.53 4.16 -5.02 3.31z"/>
  <path d="M871.31 468.77 c3.80 -6.61 8.08 -6.61 4.65 0 -1.10 2.33 -2.82 3.80 -4.41 3.80 -2.45 0 -2.45 -0.12 -0.24 -3.80z"/>
  <path d="M977.70 467.91 c-0.37 -0.37 -0.73 -1.35 -0.73 -2.33 0 -1.22 2.45 -1.59 9.79 -1.59 8.57 0 9.79 0.24 9.79 2.20 0 1.71 -1.35 2.08 -9.06 2.33 -5.02 0 -9.43 -0.24 -9.79 -0.61z"/>
  <path d="M1243.85 466.57 c0 -2.45 0.61 -2.57 9.18 -2.57 7.35 0 9.18 0.37 9.18 1.84 0 1.35 -1.35 1.84 -4.53 1.84 -2.57 0 -6.73 0.37 -9.18 0.73 -4.16 0.73 -4.65 0.49 -4.65 -1.84z"/>
 </g>
 <g fill="#204365">
  <path d="M951.25 531.94 l0 -6.73 90.35 0.24 90.23 0.37 0.37 6.49 0.37 6.37 -90.60 0 -90.72 0 0 -6.73z"/>
  <path d="M381.11 392.38 c0 -2.69 0.24 -3.67 0.49 -2.08 0.24 1.47 0.24 3.67 0 4.90 -0.37 1.10 -0.61 -0.12 -0.49 -2.82z"/>
  <path d="M1509.52 376.71 c0.49 -5.02 0.61 -5.02 0.98 -0.98 0.24 2.20 0 4.53 -0.61 5.14 -0.61 0.61 -0.73 -1.35 -0.37 -4.16z"/>
  <path d="M1429.08 372.18 c0 -3.67 0.24 -5.26 0.49 -3.31 0.24 1.84 0.24 4.77 0 6.73 -0.24 1.84 -0.49 0.24 -0.49 -3.43z"/>
  <path d="M1028.87 340.35 c0 -15.79 0.24 -22.28 0.37 -14.32 0.24 7.84 0.24 20.81 0 28.77 -0.12 7.84 -0.37 1.35 -0.37 -14.45z"/>
  <path d="M769.21 352.59 c0 -4.41 0.24 -6.12 0.49 -3.92 0.24 2.08 0.24 5.75 0 7.96 -0.24 2.08 -0.49 0.37 -0.49 -4.04z"/>
  <path d="M1429.21 323.82 c0 -6.73 0.12 -9.30 0.37 -5.75 0.24 3.55 0.24 9.06 0 12.24 -0.24 3.18 -0.37 0.24 -0.37 -6.49z"/>
  <path d="M1785.35 318.31 c0 -3.67 0.24 -5.26 0.49 -3.43 0.24 1.96 0.24 4.90 0 6.86 -0.24 1.84 -0.49 0.24 -0.49 -3.43z"/>
 </g>
</svg>